<svg xmlns="http://www.w3.org/2000/svg" version="1.1" xmlns:xlink="http://www.w3.org/1999/xlink" xmlns:svgjs="http://svgjs.dev/svgjs" width="1440" height="560" preserveAspectRatio="none" viewBox="0 0 1440 560"><g mask="url(&quot;#SvgjsMask1012&quot;)" fill="none"><rect width="1440" height="560" x="0" y="0" fill="rgba(255, 255, 255, 1)"></rect><g><path d="M742.5 256.5L769.5 283.5L796.5 283.5M688.5 283.5L715.5 310.5L742.5 310.5L769.5 310.5M1282.5 283.5L1309.5 256.5L1336.5 256.5L1363.5 229.5M715.5 283.5L742.5 283.5M904.5 256.5L931.5 283.5L958.5 283.5L985.5 283.5M661.5 283.5L688.5 310.5M1255.5 283.5L1282.5 256.5M1201.5 283.5L1228.5 310.5L1255.5 310.5L1282.5 310.5L1309.5 310.5L1336.5 310.5L1363.5 310.5L1390.5 310.5M202.5 283.5L229.5 256.5L256.5 256.5L283.5 256.5L310.5 256.5L337.5 256.5L364.5 256.5L391.5 256.5L418.5 256.5L445.5 256.5M1228.5 283.5L1255.5 256.5M1147.5 256.5L1174.5 256.5L1201.5 256.5L1228.5 256.5M1363.5 283.5L1390.5 256.5M877.5 256.5L904.5 283.5L931.5 310.5L958.5 310.5L985.5 310.5L1012.5 310.5L1039.5 310.5L1066.5 337.5L1093.5 337.5L1120.5 364.5L1147.5 364.5M-13.5 283.5L13.5 283.5L40.5 283.5L67.5 283.5L94.5 283.5L121.5 283.5L148.5 283.5L175.5 283.5L202.5 283.5L229.5 283.5L256.5 283.5L283.5 283.5L310.5 283.5L337.5 283.5L364.5 283.5L391.5 283.5L418.5 283.5L445.5 283.5L472.5 283.5L499.5 283.5L526.5 283.5L553.5 283.5L580.5 283.5L607.5 283.5L634.5 283.5L661.5 283.5L688.5 283.5L715.5 283.5L742.5 256.5L769.5 256.5L796.5 256.5L823.5 256.5L850.5 256.5L877.5 256.5L904.5 256.5L931.5 256.5L958.5 256.5L985.5 256.5L1012.5 256.5L1039.5 256.5L1066.5 256.5L1093.5 256.5L1120.5 256.5L1147.5 256.5L1174.5 283.5L1201.5 283.5L1228.5 283.5L1255.5 283.5L1282.5 283.5L1309.5 283.5L1336.5 283.5L1363.5 283.5L1390.5 283.5" stroke="rgba(240, 248, 255, 1)" stroke-width="4.5"></path><path d="M1386 283.5 a4.5 4.5 0 1 0 9 0 a4.5 4.5 0 1 0 -9 0zM792 283.5 a4.5 4.5 0 1 0 9 0 a4.5 4.5 0 1 0 -9 0zM765 310.5 a4.5 4.5 0 1 0 9 0 a4.5 4.5 0 1 0 -9 0zM1359 229.5 a4.5 4.5 0 1 0 9 0 a4.5 4.5 0 1 0 -9 0zM738 283.5 a4.5 4.5 0 1 0 9 0 a4.5 4.5 0 1 0 -9 0zM981 283.5 a4.5 4.5 0 1 0 9 0 a4.5 4.5 0 1 0 -9 0zM684 310.5 a4.5 4.5 0 1 0 9 0 a4.5 4.5 0 1 0 -9 0zM1278 256.5 a4.5 4.5 0 1 0 9 0 a4.5 4.5 0 1 0 -9 0zM1386 310.5 a4.5 4.5 0 1 0 9 0 a4.5 4.5 0 1 0 -9 0zM441 256.5 a4.5 4.5 0 1 0 9 0 a4.5 4.5 0 1 0 -9 0zM1251 256.5 a4.5 4.5 0 1 0 9 0 a4.5 4.5 0 1 0 -9 0zM1224 256.5 a4.5 4.5 0 1 0 9 0 a4.5 4.5 0 1 0 -9 0zM1386 256.5 a4.5 4.5 0 1 0 9 0 a4.5 4.5 0 1 0 -9 0zM1143 364.5 a4.5 4.5 0 1 0 9 0 a4.5 4.5 0 1 0 -9 0z" fill="rgba(240, 248, 255, 1)"></path><path d="M553.5 256.5L580.5 229.5L607.5 229.5L634.5 229.5L661.5 229.5L688.5 229.5L715.5 229.5L742.5 202.5L769.5 202.5L796.5 202.5L823.5 202.5L850.5 202.5L877.5 202.5L904.5 202.5L931.5 202.5M1120.5 229.5L1147.5 202.5M256.5 229.5L283.5 202.5L310.5 202.5L337.5 202.5L364.5 202.5L391.5 202.5L418.5 202.5L445.5 202.5L472.5 175.5M1255.5 229.5L1282.5 202.5L1309.5 202.5L1336.5 202.5L1363.5 202.5L1390.5 202.5M1174.5 229.5L1201.5 202.5L1228.5 202.5M958.5 229.5L985.5 202.5L1012.5 202.5L1039.5 202.5M499.5 256.5L526.5 229.5L553.5 229.5L580.5 202.5L607.5 202.5L634.5 202.5L661.5 202.5L688.5 202.5L715.5 202.5L742.5 175.5L769.5 175.5L796.5 175.5L823.5 175.5M175.5 256.5L202.5 256.5M472.5 229.5L499.5 229.5L526.5 202.5L553.5 202.5L580.5 175.5L607.5 175.5M1066.5 229.5L1093.5 202.5L1120.5 202.5L1147.5 175.5M-13.5 256.5L13.5 256.5L40.5 256.5L67.5 256.5L94.5 256.5L121.5 256.5L148.5 256.5L175.5 256.5L202.5 229.5L229.5 229.5L256.5 229.5L283.5 229.5L310.5 229.5L337.5 229.5L364.5 229.5L391.5 229.5L418.5 229.5L445.5 229.5L472.5 229.5L499.5 256.5L526.5 256.5L553.5 256.5L580.5 256.5L607.5 256.5L634.5 256.5L661.5 256.5L688.5 256.5L715.5 256.5L742.5 229.5L769.5 229.5L796.5 229.5L823.5 229.5L850.5 229.5L877.5 229.5L904.5 229.5L931.5 229.5L958.5 229.5L985.5 229.5L1012.5 229.5L1039.5 229.5L1066.5 229.5L1093.5 229.5L1120.5 229.5L1147.5 229.5L1174.5 229.5L1201.5 229.5L1228.5 229.5L1255.5 229.5L1282.5 229.5" stroke="rgba(240, 248, 255, 1)" stroke-width="4.5"></path><path d="M1278 229.5 a4.5 4.5 0 1 0 9 0 a4.5 4.5 0 1 0 -9 0zM927 202.5 a4.5 4.5 0 1 0 9 0 a4.5 4.5 0 1 0 -9 0zM1143 202.5 a4.5 4.5 0 1 0 9 0 a4.5 4.5 0 1 0 -9 0zM468 175.5 a4.5 4.5 0 1 0 9 0 a4.5 4.5 0 1 0 -9 0zM1386 202.5 a4.5 4.5 0 1 0 9 0 a4.5 4.5 0 1 0 -9 0zM1224 202.5 a4.5 4.5 0 1 0 9 0 a4.5 4.5 0 1 0 -9 0zM1035 202.5 a4.5 4.5 0 1 0 9 0 a4.5 4.5 0 1 0 -9 0zM819 175.5 a4.5 4.5 0 1 0 9 0 a4.5 4.5 0 1 0 -9 0zM198 256.5 a4.5 4.5 0 1 0 9 0 a4.5 4.5 0 1 0 -9 0zM603 175.5 a4.5 4.5 0 1 0 9 0 a4.5 4.5 0 1 0 -9 0zM1143 175.5 a4.5 4.5 0 1 0 9 0 a4.5 4.5 0 1 0 -9 0z" fill="rgba(240, 248, 255, 1)"></path><path d="M526.5 310.5L553.5 337.5L580.5 337.5L607.5 337.5M472.5 310.5L499.5 337.5L526.5 337.5M445.5 310.5L472.5 337.5M-13.5 310.5L13.5 310.5L40.5 310.5L67.5 310.5L94.5 310.5L121.5 310.5L148.5 310.5L175.5 310.5L202.5 310.5L229.5 310.5L256.5 310.5L283.5 310.5L310.5 310.5L337.5 310.5L364.5 310.5L391.5 310.5L418.5 310.5L445.5 310.5L472.5 310.5L499.5 310.5L526.5 310.5L553.5 310.5L580.5 310.5L607.5 310.5L634.5 310.5" stroke="rgba(240, 248, 255, 1)" stroke-width="4.5"></path><path d="M630 310.5 a4.5 4.5 0 1 0 9 0 a4.5 4.5 0 1 0 -9 0zM603 337.5 a4.5 4.5 0 1 0 9 0 a4.5 4.5 0 1 0 -9 0zM522 337.5 a4.5 4.5 0 1 0 9 0 a4.5 4.5 0 1 0 -9 0zM468 337.5 a4.5 4.5 0 1 0 9 0 a4.5 4.5 0 1 0 -9 0z" fill="rgba(240, 248, 255, 1)"></path><path d="M715.5 148.5L742.5 121.5L769.5 121.5L796.5 121.5L823.5 121.5L850.5 121.5L877.5 94.5L904.5 94.5L931.5 94.5L958.5 94.5L985.5 94.5M526.5 148.5L553.5 175.5M1201.5 148.5L1228.5 121.5L1255.5 121.5M661.5 148.5L688.5 121.5L715.5 121.5L742.5 94.5L769.5 94.5L796.5 94.5L823.5 94.5L850.5 67.5L877.5 67.5L904.5 67.5M337.5 148.5L364.5 175.5L391.5 175.5L418.5 175.5L445.5 175.5M688.5 148.5L715.5 175.5M877.5 148.5L904.5 121.5L931.5 121.5L958.5 121.5L985.5 121.5L1012.5 121.5L1039.5 121.5M1066.5 148.5L1093.5 175.5L1120.5 175.5M1174.5 148.5L1201.5 121.5L1228.5 94.5L1255.5 94.5L1282.5 94.5L1309.5 94.5L1336.5 94.5L1363.5 94.5L1390.5 67.5M391.5 148.5L418.5 121.5L445.5 121.5L472.5 121.5L499.5 121.5L526.5 121.5L553.5 121.5L580.5 121.5L607.5 121.5L634.5 121.5L661.5 121.5L688.5 94.5M310.5 148.5L337.5 175.5M-13.5 229.5L13.5 229.5L40.5 229.5L67.5 229.5L94.5 229.5L121.5 229.5L148.5 229.5L175.5 229.5L202.5 202.5L229.5 202.5L256.5 175.5L283.5 175.5L310.5 148.5L337.5 148.5L364.5 148.5L391.5 148.5L418.5 148.5L445.5 148.5L472.5 148.5L499.5 148.5L526.5 148.5L553.5 148.5L580.5 148.5L607.5 148.5L634.5 148.5L661.5 148.5L688.5 148.5L715.5 148.5L742.5 148.5L769.5 148.5L796.5 148.5L823.5 148.5L850.5 148.5L877.5 148.5L904.5 148.5L931.5 148.5L958.5 148.5L985.5 175.5L1012.5 175.5L1039.5 175.5L1066.5 148.5L1093.5 148.5L1120.5 148.5L1147.5 148.5L1174.5 148.5L1201.5 148.5L1228.5 148.5" stroke="rgba(240, 248, 255, 1)" stroke-width="4.5"></path><path d="M1224 148.5 a4.5 4.5 0 1 0 9 0 a4.5 4.5 0 1 0 -9 0zM981 94.5 a4.5 4.5 0 1 0 9 0 a4.5 4.5 0 1 0 -9 0zM549 175.5 a4.5 4.5 0 1 0 9 0 a4.5 4.5 0 1 0 -9 0zM1251 121.5 a4.5 4.5 0 1 0 9 0 a4.5 4.5 0 1 0 -9 0zM900 67.5 a4.5 4.5 0 1 0 9 0 a4.5 4.5 0 1 0 -9 0zM441 175.5 a4.5 4.5 0 1 0 9 0 a4.5 4.5 0 1 0 -9 0zM711 175.5 a4.5 4.5 0 1 0 9 0 a4.5 4.5 0 1 0 -9 0zM1035 121.5 a4.5 4.5 0 1 0 9 0 a4.5 4.5 0 1 0 -9 0zM1116 175.5 a4.5 4.5 0 1 0 9 0 a4.5 4.5 0 1 0 -9 0zM1386 67.5 a4.5 4.5 0 1 0 9 0 a4.5 4.5 0 1 0 -9 0zM684 94.5 a4.5 4.5 0 1 0 9 0 a4.5 4.5 0 1 0 -9 0zM333 175.5 a4.5 4.5 0 1 0 9 0 a4.5 4.5 0 1 0 -9 0z" fill="rgba(240, 248, 255, 1)"></path><path d="M769.5 391.5L796.5 364.5L823.5 364.5L850.5 364.5L877.5 364.5L904.5 364.5L931.5 364.5M580.5 364.5L607.5 364.5L634.5 364.5L661.5 364.5L688.5 364.5M418.5 337.5L445.5 337.5M742.5 391.5L769.5 364.5M715.5 391.5L742.5 364.5L769.5 337.5L796.5 337.5L823.5 337.5L850.5 337.5L877.5 337.5L904.5 337.5L931.5 337.5L958.5 337.5L985.5 337.5M-13.5 337.5L13.5 337.5L40.5 337.5L67.5 337.5L94.5 337.5L121.5 337.5L148.5 337.5L175.5 337.5L202.5 337.5L229.5 337.5L256.5 337.5L283.5 337.5L310.5 337.5L337.5 337.5L364.5 337.5L391.5 337.5L418.5 337.5L445.5 364.5L472.5 364.5L499.5 364.5L526.5 364.5L553.5 364.5L580.5 364.5L607.5 391.5L634.5 391.5L661.5 391.5L688.5 391.5L715.5 391.5L742.5 391.5L769.5 391.5L796.5 391.5L823.5 391.5" stroke="rgba(240, 248, 255, 1)" stroke-width="4.5"></path><path d="M819 391.5 a4.5 4.5 0 1 0 9 0 a4.5 4.5 0 1 0 -9 0zM927 364.5 a4.5 4.5 0 1 0 9 0 a4.5 4.5 0 1 0 -9 0zM684 364.5 a4.5 4.5 0 1 0 9 0 a4.5 4.5 0 1 0 -9 0zM441 337.5 a4.5 4.5 0 1 0 9 0 a4.5 4.5 0 1 0 -9 0zM765 364.5 a4.5 4.5 0 1 0 9 0 a4.5 4.5 0 1 0 -9 0zM981 337.5 a4.5 4.5 0 1 0 9 0 a4.5 4.5 0 1 0 -9 0z" fill="rgba(240, 248, 255, 1)"></path><path d="M148.5 202.5L175.5 175.5M391.5 67.5L418.5 94.5L445.5 94.5L472.5 94.5M364.5 67.5L391.5 94.5M310.5 121.5L337.5 121.5M-13.5 202.5L13.5 202.5L40.5 202.5L67.5 202.5L94.5 202.5L121.5 202.5L148.5 202.5L175.5 202.5L202.5 175.5L229.5 175.5L256.5 148.5L283.5 148.5L310.5 121.5L337.5 94.5L364.5 67.5L391.5 67.5L418.5 67.5L445.5 67.5L472.5 67.5" stroke="rgba(240, 248, 255, 1)" stroke-width="4.5"></path><path d="M468 67.5 a4.5 4.5 0 1 0 9 0 a4.5 4.5 0 1 0 -9 0zM171 175.5 a4.5 4.5 0 1 0 9 0 a4.5 4.5 0 1 0 -9 0zM468 94.5 a4.5 4.5 0 1 0 9 0 a4.5 4.5 0 1 0 -9 0zM387 94.5 a4.5 4.5 0 1 0 9 0 a4.5 4.5 0 1 0 -9 0zM333 121.5 a4.5 4.5 0 1 0 9 0 a4.5 4.5 0 1 0 -9 0z" fill="rgba(240, 248, 255, 1)"></path><path d="M850.5 418.5L877.5 391.5L904.5 391.5L931.5 418.5L958.5 418.5L985.5 418.5L1012.5 418.5L1039.5 418.5L1066.5 418.5L1093.5 418.5L1120.5 418.5L1147.5 418.5M958.5 445.5L985.5 472.5L1012.5 472.5L1039.5 472.5L1066.5 472.5M877.5 418.5L904.5 418.5M-13.5 364.5L13.5 364.5L40.5 364.5L67.5 364.5L94.5 364.5L121.5 364.5L148.5 364.5L175.5 364.5L202.5 364.5L229.5 364.5L256.5 364.5L283.5 364.5L310.5 364.5L337.5 364.5L364.5 364.5L391.5 364.5L418.5 364.5L445.5 391.5L472.5 391.5L499.5 391.5L526.5 391.5L553.5 391.5L580.5 391.5L607.5 418.5L634.5 418.5L661.5 418.5L688.5 418.5L715.5 418.5L742.5 418.5L769.5 418.5L796.5 418.5L823.5 418.5L850.5 418.5L877.5 418.5L904.5 445.5L931.5 445.5L958.5 445.5L985.5 445.5L1012.5 445.5L1039.5 445.5L1066.5 445.5" stroke="rgba(240, 248, 255, 1)" stroke-width="4.5"></path><path d="M1062 445.5 a4.5 4.5 0 1 0 9 0 a4.5 4.5 0 1 0 -9 0zM1143 418.5 a4.5 4.5 0 1 0 9 0 a4.5 4.5 0 1 0 -9 0zM1062 472.5 a4.5 4.5 0 1 0 9 0 a4.5 4.5 0 1 0 -9 0zM900 418.5 a4.5 4.5 0 1 0 9 0 a4.5 4.5 0 1 0 -9 0z" fill="rgba(240, 248, 255, 1)"></path><path d="M121.5 175.5L148.5 175.5M202.5 148.5L229.5 148.5M-13.5 175.5L13.5 175.5L40.5 175.5L67.5 175.5L94.5 175.5L121.5 175.5L148.5 148.5L175.5 148.5L202.5 148.5L229.5 121.5L256.5 121.5L283.5 121.5L310.5 94.5L337.5 67.5" stroke="rgba(240, 248, 255, 1)" stroke-width="4.5"></path><path d="M333 67.5 a4.5 4.5 0 1 0 9 0 a4.5 4.5 0 1 0 -9 0zM144 175.5 a4.5 4.5 0 1 0 9 0 a4.5 4.5 0 1 0 -9 0zM225 148.5 a4.5 4.5 0 1 0 9 0 a4.5 4.5 0 1 0 -9 0z" fill="rgba(240, 248, 255, 1)"></path><path d="M769.5 445.5L796.5 472.5M67.5 391.5L94.5 418.5L121.5 418.5M661.5 445.5L688.5 472.5L715.5 472.5L742.5 472.5L769.5 472.5L796.5 499.5M148.5 391.5L175.5 418.5L202.5 418.5L229.5 418.5L256.5 418.5L283.5 418.5L310.5 418.5L337.5 418.5M931.5 472.5L958.5 472.5M445.5 418.5L472.5 445.5L499.5 445.5M850.5 445.5L877.5 472.5L904.5 499.5L931.5 499.5M823.5 445.5L850.5 472.5M364.5 391.5L391.5 418.5L418.5 418.5L445.5 445.5L472.5 472.5L499.5 472.5L526.5 472.5L553.5 472.5L580.5 472.5L607.5 472.5L634.5 472.5L661.5 472.5L688.5 499.5L715.5 499.5M40.5 391.5L67.5 418.5L94.5 445.5L121.5 445.5L148.5 445.5M-13.5 391.5L13.5 391.5L40.5 391.5L67.5 391.5L94.5 391.5L121.5 391.5L148.5 391.5L175.5 391.5L202.5 391.5L229.5 391.5L256.5 391.5L283.5 391.5L310.5 391.5L337.5 391.5L364.5 391.5L391.5 391.5L418.5 391.5L445.5 418.5L472.5 418.5L499.5 418.5L526.5 418.5L553.5 418.5L580.5 418.5L607.5 445.5L634.5 445.5L661.5 445.5L688.5 445.5L715.5 445.5L742.5 445.5L769.5 445.5L796.5 445.5L823.5 445.5L850.5 445.5L877.5 445.5L904.5 472.5L931.5 472.5L958.5 499.5L985.5 499.5L1012.5 499.5L1039.5 499.5" stroke="rgba(240, 248, 255, 1)" stroke-width="4.5"></path><path d="M1035 499.5 a4.5 4.5 0 1 0 9 0 a4.5 4.5 0 1 0 -9 0zM792 472.5 a4.5 4.5 0 1 0 9 0 a4.5 4.5 0 1 0 -9 0zM117 418.5 a4.5 4.5 0 1 0 9 0 a4.5 4.5 0 1 0 -9 0zM792 499.5 a4.5 4.5 0 1 0 9 0 a4.5 4.5 0 1 0 -9 0zM333 418.5 a4.5 4.5 0 1 0 9 0 a4.5 4.5 0 1 0 -9 0zM954 472.5 a4.5 4.5 0 1 0 9 0 a4.5 4.5 0 1 0 -9 0zM495 445.5 a4.5 4.5 0 1 0 9 0 a4.5 4.5 0 1 0 -9 0zM927 499.5 a4.5 4.5 0 1 0 9 0 a4.5 4.5 0 1 0 -9 0zM846 472.5 a4.5 4.5 0 1 0 9 0 a4.5 4.5 0 1 0 -9 0zM711 499.5 a4.5 4.5 0 1 0 9 0 a4.5 4.5 0 1 0 -9 0zM144 445.5 a4.5 4.5 0 1 0 9 0 a4.5 4.5 0 1 0 -9 0z" fill="rgba(240, 248, 255, 1)"></path><path d="M229.5 94.5L256.5 67.5L283.5 67.5M94.5 148.5L121.5 121.5M13.5 148.5L40.5 121.5L67.5 121.5M-13.5 148.5L13.5 148.5L40.5 148.5L67.5 148.5L94.5 148.5L121.5 148.5L148.5 121.5L175.5 121.5L202.5 121.5L229.5 94.5L256.5 94.5L283.5 94.5L310.5 67.5" stroke="rgba(240, 248, 255, 1)" stroke-width="4.5"></path><path d="M306 67.5 a4.5 4.5 0 1 0 9 0 a4.5 4.5 0 1 0 -9 0zM279 67.5 a4.5 4.5 0 1 0 9 0 a4.5 4.5 0 1 0 -9 0zM117 121.5 a4.5 4.5 0 1 0 9 0 a4.5 4.5 0 1 0 -9 0zM63 121.5 a4.5 4.5 0 1 0 9 0 a4.5 4.5 0 1 0 -9 0z" fill="rgba(240, 248, 255, 1)"></path></g></g><defs><mask id="SvgjsMask1012"><rect width="1440" height="560" fill="#ffffff"></rect></mask></defs></svg>