<svg xmlns="http://www.w3.org/2000/svg" version="1.1" xmlns:xlink="http://www.w3.org/1999/xlink" xmlns:svgjs="http://svgjs.dev/svgjs" width="1440" height="560" preserveAspectRatio="none" viewBox="0 0 1440 560"><g mask="url(&quot;#SvgjsMask1007&quot;)" fill="none"><rect width="1440" height="560" x="0" y="0" fill="rgba(255, 255, 255, 1)"></rect><path d="M1449.4 362.02C1332.55 361.82 1218.33 292.02 987.25 292.02 756.18 292.02 773.44 368.54 525.11 362.02 276.77 355.5 218.27-40.5 62.96-72.81" stroke="rgba(240, 248, 255, 1)" stroke-width="2"></path><path d="M1468.55 278.98C1306.75 280.75 1169.47 461.42 846.61 458.18 523.75 454.94 425.6-34.77 224.67-68.53" stroke="rgba(240, 248, 255, 1)" stroke-width="2"></path><path d="M1644.33 156.18C1524.43 155.99 1407.1 86.18 1169.88 86.18 932.65 86.18 934.16 156.35 695.43 156.18 456.7 156.01 347.55-17.99 220.98-20.84" stroke="rgba(240, 248, 255, 1)" stroke-width="2"></path><path d="M1618.01 148.2C1455.25 149.24 1306.83 300.4 984.77 299.4 662.71 298.4 536.46-72.64 351.53-87.55" stroke="rgba(240, 248, 255, 1)" stroke-width="2"></path><path d="M1562.66 46.72C1388.39 47.73 1224.33 203.63 883.43 203.52 542.53 203.41 387.33-66.43 204.2-71.59" stroke="rgba(240, 248, 255, 1)" stroke-width="2"></path></g><defs><mask id="SvgjsMask1007"><rect width="1440" height="560" fill="#ffffff"></rect></mask></defs></svg>