<svg xmlns="http://www.w3.org/2000/svg" version="1.1" xmlns:xlink="http://www.w3.org/1999/xlink" xmlns:svgjs="http://svgjs.dev/svgjs" width="1000" height="350" preserveAspectRatio="none" viewBox="0 0 1000 350"><g mask="url(&quot;#SvgjsMask1280&quot;)" fill="none"><rect width="1000" height="350" x="0" y="0" fill="rgba(255, 255, 255, 1)"></rect><path d="M0 191.17L10 230.79L20 266.69L30 249.22L40 290.1L50 299.66L60 317.31L70 346.42L80 347.26L90 307.48L100 310.36L110 318.75L120 331.03L130 306.11L140 322.66L150 283.74L160 240.96L170 205.44L180 211.48L190 241.54L200 219.6L210 208.73L220 214.74L230 242.47L240 227.51L250 188.59L260 155.22L270 151.23L280 193.87L290 200.56L300 224.71L310 230.35L320 188.38L330 213.83L340 196.27L350 229.18L360 235.04L370 237.37L380 280.67L390 247.82L400 257.96L410 239.98L420 231.6L430 241.95L440 235.51L450 199.92L460 238.62L470 215.6L480 248.21L490 236.01L500 224.04L510 184.78L520 155.65L530 190.17L540 193.95L550 173.35L560 184.18L570 190.35L580 180.6L590 143.23L600 186.48L610 145.48L620 151.21L630 183.77L640 156.06L650 173.37L660 157.01L670 192.52L680 196.34L690 154.42L700 195.81L710 182.46L720 142.25L730 136.35L740 142.91L750 109.54L760 79.27L770 89.52L780 130.96L790 135.19L800 134.31L810 169.43L820 171.22L830 182.65L840 212.95L850 188.85L860 148.34L870 186.72L880 156.82L890 134.75L900 132.31L910 171.59L920 131.98L930 121.78L940 144.84L950 120.93L960 92.14L970 84.23L980 53.18L990 19.87L1000 62.48" stroke="rgba(222, 239, 255, 1)" stroke-width="2"></path><path d="M0 191.17L10 230.79L20 266.69L30 249.22L40 290.1L50 299.66L60 317.31L70 346.42L80 347.26L90 307.48L100 310.36L110 318.75L120 331.03L130 306.11L140 322.66L150 283.74L160 240.96L170 205.44L180 211.48L190 241.54L200 219.6L210 208.73L220 214.74L230 242.47L240 227.51L250 188.59L260 155.22L270 151.23L280 193.87L290 200.56L300 224.71L310 230.35L320 188.38L330 213.83L340 196.27L350 229.18L360 235.04L370 237.37L380 280.67L390 247.82L400 257.96L410 239.98L420 231.6L430 241.95L440 235.51L450 199.92L460 238.62L470 215.6L480 248.21L490 236.01L500 224.04L510 184.78L520 155.65L530 190.17L540 193.95L550 173.35L560 184.18L570 190.35L580 180.6L590 143.23L600 186.48L610 145.48L620 151.21L630 183.77L640 156.06L650 173.37L660 157.01L670 192.52L680 196.34L690 154.42L700 195.81L710 182.46L720 142.25L730 136.35L740 142.91L750 109.54L760 79.27L770 89.52L780 130.96L790 135.19L800 134.31L810 169.43L820 171.22L830 182.65L840 212.95L850 188.85L860 148.34L870 186.72L880 156.82L890 134.75L900 132.31L910 171.59L920 131.98L930 121.78L940 144.84L950 120.93L960 92.14L970 84.23L980 53.18L990 19.87L1000 62.48L1000 350L0 350z" fill="url(&quot;#SvgjsLinearGradient1281&quot;)"></path></g><defs><mask id="SvgjsMask1280"><rect width="1000" height="350" fill="#ffffff"></rect></mask><linearGradient x1="50%" y1="0%" x2="50%" y2="100%" id="SvgjsLinearGradient1281"><stop stop-opacity="0.65" stop-color="rgba(222, 239, 255, 1)" offset="0"></stop><stop stop-opacity="0" stop-color="#ffffff" offset="0.8"></stop></linearGradient></defs></svg>