<svg xmlns="http://www.w3.org/2000/svg" version="1.1" xmlns:xlink="http://www.w3.org/1999/xlink" xmlns:svgjs="http://svgjs.dev/svgjs" width="1440" height="650" preserveAspectRatio="none" viewBox="0 0 1440 650"><g mask="url(&quot;#SvgjsMask1173&quot;)" fill="none"><rect width="1440" height="650" x="0" y="0" fill="rgba(255, 255, 255, 1)"></rect><path d="M -390.52398779074963,115 C -294.52,207.2 -102.52,545.6 89.47601220925034,576 C 281.48,606.4 377.48,285.6 569.4760122092504,267 C 761.48,248.4 857.48,513.8 1049.4760122092503,483 C 1241.48,452.2 1451.37,141 1529.4760122092503,113 C 1607.58,85 1457.9,297 1440,343" stroke="rgba(59, 130, 246, 0.25)" stroke-width="2"></path><path d="M -160.46875246134533,147 C -64.47,185.4 127.53,352.4 319.53124753865467,339 C 511.53,325.6 607.53,52.8 799.5312475386547,80 C 991.53,107.2 1087.53,441.2 1279.5312475386547,475 C 1471.53,508.8 1727.44,261.4 1759.5312475386547,249 C 1791.62,236.6 1503.91,380.2 1440,413" stroke="rgba(59, 130, 246, 0.25)" stroke-width="2"></path><path d="M -842.3686188963854,518 C -746.37,450.2 -554.37,210 -362.3686188963854,179 C -170.37,148 -74.37,351 117.63138110361461,363 C 309.63,375 405.63,222.8 597.6313811036146,239 C 789.63,255.2 909.16,458 1077.6313811036146,444 C 1246.11,430 1367.53,224 1440,169" stroke="rgba(59, 130, 246, 0.25)" stroke-width="2"></path><path d="M -489.1035626602863,465 C -393.1,413.4 -201.1,195 -9.103562660286286,207 C 182.9,219 278.9,501.6 470.8964373397137,525 C 662.9,548.4 758.9,330.4 950.8964373397137,324 C 1142.9,317.6 1333.08,515 1430.8964373397137,493 C 1528.72,471 1438.18,269.8 1440,214" stroke="rgba(59, 130, 246, 0.25)" stroke-width="2"></path><path d="M -442.5689369229358,483 C -346.57,404.4 -154.57,96.4 37.43106307706421,90 C 229.43,83.6 325.43,447.4 517.4310630770642,451 C 709.43,454.6 805.43,122.6 997.4310630770642,108 C 1189.43,93.4 1388.92,373.2 1477.4310630770642,378 C 1565.94,382.8 1447.49,181.2 1440,132" stroke="rgba(59, 130, 246, 0.25)" stroke-width="2"></path><path d="M -723.8345690738926,554 C -627.83,487.8 -435.83,227.2 -243.83456907389257,223 C -51.83,218.8 44.17,546 236.16543092610743,533 C 428.17,520 524.17,161.4 716.1654309261074,158 C 908.17,154.6 1051.4,509.4 1196.1654309261075,516 C 1340.93,522.6 1391.23,256 1440,191" stroke="rgba(59, 130, 246, 0.25)" stroke-width="2"></path></g><defs><mask id="SvgjsMask1173"><rect width="1440" height="650" fill="#ffffff"></rect></mask></defs></svg>